<mxfile host="Electron" modified="2024-02-14T06:21:39.581Z" agent="Mozilla/5.0 (Windows NT 10.0; Win64; x64) AppleWebKit/537.36 (KHTML, like Gecko) draw.io/22.1.2 Chrome/114.0.5735.289 Electron/25.9.4 Safari/537.36" etag="HEQGKWJGpSH_09wcajWB" version="22.1.2" type="device">
  <diagram name="Page-1" id="QzHB_I3WU6dS4iu5-XwM">
    <mxGraphModel dx="1687" dy="984" grid="1" gridSize="10" guides="1" tooltips="1" connect="1" arrows="1" fold="1" page="1" pageScale="1" pageWidth="827" pageHeight="1169" math="0" shadow="0">
      <root>
        <mxCell id="0" />
        <mxCell id="1" parent="0" />
        <mxCell id="EgSK9wieqij4Dmwu2kNA-5" value="" style="rounded=0;whiteSpace=wrap;html=1;fillColor=#d5e8d4;strokeColor=#82b366;" vertex="1" parent="1">
          <mxGeometry x="470" y="20" width="280" height="180" as="geometry" />
        </mxCell>
        <mxCell id="EgSK9wieqij4Dmwu2kNA-4" value="" style="rounded=0;whiteSpace=wrap;html=1;fillColor=#dae8fc;strokeColor=#6c8ebf;" vertex="1" parent="1">
          <mxGeometry x="55" y="20" width="280" height="180" as="geometry" />
        </mxCell>
        <mxCell id="EgSK9wieqij4Dmwu2kNA-1" value="" style="rounded=1;whiteSpace=wrap;html=1;fillColor=#f5f5f5;fontColor=#333333;strokeColor=#666666;" vertex="1" parent="1">
          <mxGeometry x="190" y="360" width="430" height="420" as="geometry" />
        </mxCell>
        <mxCell id="EgSK9wieqij4Dmwu2kNA-2" value="" style="rounded=1;whiteSpace=wrap;html=1;" vertex="1" parent="1">
          <mxGeometry x="500" y="40" width="220" height="140" as="geometry" />
        </mxCell>
        <mxCell id="EgSK9wieqij4Dmwu2kNA-3" value="" style="rounded=1;whiteSpace=wrap;html=1;" vertex="1" parent="1">
          <mxGeometry x="80" y="40" width="230" height="140" as="geometry" />
        </mxCell>
        <mxCell id="EgSK9wieqij4Dmwu2kNA-6" value="insurance-details app" style="text;html=1;strokeColor=none;fillColor=none;align=center;verticalAlign=middle;whiteSpace=wrap;rounded=0;" vertex="1" parent="1">
          <mxGeometry x="120" y="16" width="140" height="30" as="geometry" />
        </mxCell>
        <mxCell id="EgSK9wieqij4Dmwu2kNA-7" value="payment app" style="text;html=1;strokeColor=none;fillColor=none;align=center;verticalAlign=middle;whiteSpace=wrap;rounded=0;" vertex="1" parent="1">
          <mxGeometry x="540" y="16" width="140" height="30" as="geometry" />
        </mxCell>
        <mxCell id="EgSK9wieqij4Dmwu2kNA-8" value="Web Worker" style="text;html=1;strokeColor=default;fillColor=none;align=center;verticalAlign=middle;whiteSpace=wrap;rounded=0;" vertex="1" parent="1">
          <mxGeometry x="210" y="55" width="70" height="30" as="geometry" />
        </mxCell>
        <mxCell id="EgSK9wieqij4Dmwu2kNA-9" value="" style="endArrow=none;html=1;rounded=0;entryX=0.476;entryY=1.001;entryDx=0;entryDy=0;entryPerimeter=0;" edge="1" parent="1" target="EgSK9wieqij4Dmwu2kNA-3">
          <mxGeometry width="50" height="50" relative="1" as="geometry">
            <mxPoint x="189.80997466328847" y="40" as="sourcePoint" />
            <mxPoint x="188.10000000000002" y="174.97999999999996" as="targetPoint" />
          </mxGeometry>
        </mxCell>
        <mxCell id="EgSK9wieqij4Dmwu2kNA-10" value="WebPack&lt;br&gt;Expose" style="text;html=1;strokeColor=default;fillColor=none;align=center;verticalAlign=middle;whiteSpace=wrap;rounded=0;" vertex="1" parent="1">
          <mxGeometry x="210" y="121" width="70" height="30" as="geometry" />
        </mxCell>
        <mxCell id="EgSK9wieqij4Dmwu2kNA-11" value="React UI Components" style="text;html=1;strokeColor=default;fillColor=none;align=center;verticalAlign=middle;whiteSpace=wrap;rounded=0;" vertex="1" parent="1">
          <mxGeometry x="90" y="80" width="80" height="60" as="geometry" />
        </mxCell>
        <mxCell id="EgSK9wieqij4Dmwu2kNA-12" value="" style="endArrow=none;html=1;rounded=0;entryX=0.476;entryY=1.001;entryDx=0;entryDy=0;entryPerimeter=0;" edge="1" parent="1">
          <mxGeometry width="50" height="50" relative="1" as="geometry">
            <mxPoint x="615.8099746632885" y="41" as="sourcePoint" />
            <mxPoint x="615" y="181" as="targetPoint" />
          </mxGeometry>
        </mxCell>
        <mxCell id="EgSK9wieqij4Dmwu2kNA-13" value="WebPack&lt;br&gt;Expose" style="text;html=1;strokeColor=default;fillColor=none;align=center;verticalAlign=middle;whiteSpace=wrap;rounded=0;" vertex="1" parent="1">
          <mxGeometry x="630" y="95" width="70" height="30" as="geometry" />
        </mxCell>
        <mxCell id="EgSK9wieqij4Dmwu2kNA-14" value="React UI Components" style="text;html=1;strokeColor=default;fillColor=none;align=center;verticalAlign=middle;whiteSpace=wrap;rounded=0;" vertex="1" parent="1">
          <mxGeometry x="516" y="81" width="80" height="60" as="geometry" />
        </mxCell>
        <mxCell id="EgSK9wieqij4Dmwu2kNA-15" value="" style="endArrow=none;html=1;rounded=0;entryX=0.326;entryY=0;entryDx=0;entryDy=0;entryPerimeter=0;exitX=0.321;exitY=1.002;exitDx=0;exitDy=0;exitPerimeter=0;" edge="1" parent="1" source="EgSK9wieqij4Dmwu2kNA-1" target="EgSK9wieqij4Dmwu2kNA-1">
          <mxGeometry width="50" height="50" relative="1" as="geometry">
            <mxPoint x="330" y="540" as="sourcePoint" />
            <mxPoint x="380" y="490" as="targetPoint" />
          </mxGeometry>
        </mxCell>
        <mxCell id="EgSK9wieqij4Dmwu2kNA-17" value="WebPack Remote Fedration&amp;nbsp;" style="text;html=1;strokeColor=default;fillColor=none;align=center;verticalAlign=middle;whiteSpace=wrap;rounded=0;dashed=1;" vertex="1" parent="1">
          <mxGeometry x="201" y="410" width="120" height="34" as="geometry" />
        </mxCell>
        <mxCell id="EgSK9wieqij4Dmwu2kNA-18" value="Sass Preprocessor" style="text;html=1;strokeColor=default;fillColor=none;align=center;verticalAlign=middle;whiteSpace=wrap;rounded=0;dashed=1;" vertex="1" parent="1">
          <mxGeometry x="201" y="694" width="120" height="30" as="geometry" />
        </mxCell>
        <mxCell id="EgSK9wieqij4Dmwu2kNA-19" value="Header Component" style="text;html=1;strokeColor=default;fillColor=none;align=center;verticalAlign=middle;whiteSpace=wrap;rounded=0;dashed=1;" vertex="1" parent="1">
          <mxGeometry x="201" y="638" width="120" height="30" as="geometry" />
        </mxCell>
        <mxCell id="EgSK9wieqij4Dmwu2kNA-20" value="Home Component" style="text;html=1;strokeColor=default;fillColor=none;align=center;verticalAlign=middle;whiteSpace=wrap;rounded=0;dashed=1;" vertex="1" parent="1">
          <mxGeometry x="201" y="582" width="120" height="30" as="geometry" />
        </mxCell>
        <mxCell id="EgSK9wieqij4Dmwu2kNA-21" value="Payment app" style="text;html=1;strokeColor=#82b366;fillColor=#d5e8d4;align=center;verticalAlign=middle;whiteSpace=wrap;rounded=0;dashed=1;" vertex="1" parent="1">
          <mxGeometry x="201" y="526" width="120" height="30" as="geometry" />
        </mxCell>
        <mxCell id="EgSK9wieqij4Dmwu2kNA-22" value="Insurance-details app" style="text;html=1;strokeColor=#6c8ebf;fillColor=#dae8fc;align=center;verticalAlign=middle;whiteSpace=wrap;rounded=0;dashed=1;" vertex="1" parent="1">
          <mxGeometry x="201" y="470" width="120" height="30" as="geometry" />
        </mxCell>
        <mxCell id="EgSK9wieqij4Dmwu2kNA-23" value="Container" style="text;html=1;strokeColor=default;fillColor=none;align=center;verticalAlign=middle;whiteSpace=wrap;rounded=0;" vertex="1" parent="1">
          <mxGeometry x="340" y="420" width="270" height="290" as="geometry" />
        </mxCell>
        <mxCell id="EgSK9wieqij4Dmwu2kNA-24" value="http://localhost:3000" style="text;html=1;strokeColor=default;fillColor=none;align=center;verticalAlign=middle;whiteSpace=wrap;rounded=0;" vertex="1" parent="1">
          <mxGeometry x="348" y="780" width="130" height="30" as="geometry" />
        </mxCell>
        <mxCell id="EgSK9wieqij4Dmwu2kNA-25" value="http://localhost:3001/insurance-details" style="text;html=1;strokeColor=default;fillColor=none;align=center;verticalAlign=middle;whiteSpace=wrap;rounded=0;" vertex="1" parent="1">
          <mxGeometry x="78" y="200" width="220" height="30" as="geometry" />
        </mxCell>
        <mxCell id="EgSK9wieqij4Dmwu2kNA-26" value="http://localhost:3002/payment" style="text;html=1;strokeColor=default;fillColor=none;align=center;verticalAlign=middle;whiteSpace=wrap;rounded=0;" vertex="1" parent="1">
          <mxGeometry x="486" y="200" width="220" height="30" as="geometry" />
        </mxCell>
        <mxCell id="EgSK9wieqij4Dmwu2kNA-27" value="" style="endArrow=classic;html=1;rounded=0;exitX=0.432;exitY=1.082;exitDx=0;exitDy=0;exitPerimeter=0;" edge="1" parent="1" source="EgSK9wieqij4Dmwu2kNA-25" target="EgSK9wieqij4Dmwu2kNA-1">
          <mxGeometry width="50" height="50" relative="1" as="geometry">
            <mxPoint x="130" y="340" as="sourcePoint" />
            <mxPoint x="180" y="290" as="targetPoint" />
          </mxGeometry>
        </mxCell>
        <mxCell id="EgSK9wieqij4Dmwu2kNA-28" value="" style="endArrow=classic;html=1;rounded=0;exitX=0.379;exitY=1.082;exitDx=0;exitDy=0;exitPerimeter=0;entryX=0.75;entryY=0;entryDx=0;entryDy=0;" edge="1" parent="1" source="EgSK9wieqij4Dmwu2kNA-26" target="EgSK9wieqij4Dmwu2kNA-1">
          <mxGeometry width="50" height="50" relative="1" as="geometry">
            <mxPoint x="130" y="340" as="sourcePoint" />
            <mxPoint x="180" y="290" as="targetPoint" />
          </mxGeometry>
        </mxCell>
      </root>
    </mxGraphModel>
  </diagram>
</mxfile>
